<svg width="49px" height="44px" viewBox="0 0 49 44" >
    <title>Comerc</title>
    <g id="Page-3" stroke="none" stroke-width="1" fill="none" fill-rule="evenodd">
        <g id="Mobile-Portrait" transform="translate(-10.000000, -1151.000000)">
            <g id="work" transform="translate(0.000000, 914.000000)">
                <g id="comerc" transform="translate(0.000000, 221.000000)">
                    <g id="Comerc" transform="translate(10.000000, 16.718978)">
                        <path d="M19.7709635,31.3092474 L19.7709635,31.3092474 C18.2880876,30.351065 16.3094891,30.7763277 15.3516642,32.2592036 C16.3094891,30.7763277 15.8842263,28.7977292 14.401708,27.8399044 C12.9191898,26.8817219 10.9405912,27.3069847 9.98240876,28.7898606 C10.9405912,27.3069847 10.5149708,25.3283861 9.03245255,24.3705613 C7.54993431,23.4123788 5.57133577,23.8376416 4.61315328,25.3201599 L1.33623358,30.391481 C0.378051095,31.8743569 0.803313869,33.8529555 2.28618978,34.8107803 C3.76870803,35.7689628 5.74730657,35.3437 6.70548905,33.8608241 C5.74730657,35.3437 6.17256934,37.3222985 7.65544526,38.2801234 C9.1379635,39.2383058 11.116562,38.8130431 12.0747445,37.3305248 C11.116562,38.8130431 11.5418248,40.7916416 13.0247007,41.7498241 C14.507219,42.7076489 16.4858175,42.2823861 17.444,40.7998679 L20.7209197,35.7285467 C21.6787445,34.2456708 21.2534818,32.2670723 19.7709635,31.3092474" id="Fill-1" fill="#FFC05C"></path>
                        <path d="M41.4886934,22.5643212 L41.4032117,22.5085255 L25.1166131,11.9044964 L22.5214015,15.8430949 C21.361854,17.6274818 19.4000657,18.6922482 17.2698175,18.6922482 C16.0644891,18.6922482 14.890635,18.3456715 13.8759416,17.6897153 C10.977073,15.8166277 10.1426423,11.9345401 12.0132263,9.03960584 L13.571927,6.61893431 L8.10252555,5.30308759 L0,22.0310438 L1.98682482,23.7410365 L2.04047445,23.6580584 C3.19894891,21.8650876 5.16538686,20.7949562 7.301,20.7953139 C8.50668613,20.7953139 9.68018248,21.1418905 10.6948759,21.7974891 C11.655562,22.4183942 12.4116642,23.269635 12.9055985,24.2693066 C14.0283066,24.3115109 15.1156058,24.6541533 16.0641314,25.2671898 C17.0248175,25.8877372 17.7809197,26.7393358 18.274854,27.738292 C19.397562,27.780854 20.4848613,28.1234964 21.4333869,28.7365328 C24.3322555,30.6096204 25.1666861,34.491708 23.2935985,37.3905766 L21.5560657,40.0794964 L24.2457007,41.8628102 C25.7285766,42.8209927 27.7071752,42.3957299 28.6653577,40.912854 C29.6231825,39.4303358 29.1979197,37.4517372 27.7154015,36.4935547 L28.8027007,37.196365 C30.285219,38.1545474 32.2638175,37.728927 33.222,36.2464088 C34.1801825,34.7638905 33.754562,32.785292 32.2720438,31.8271095 L33.3593431,32.529562 C34.8418613,33.4877445 36.8204599,33.0624818 37.7786423,31.5796058 C38.7364672,30.0970876 38.311562,28.1188467 36.8290438,27.1606642 L37.9159854,27.8631168 C39.3988613,28.8212993 41.3774599,28.3956788 42.3352847,26.9131606 C43.2705766,25.4656934 42.8871606,23.5461095 41.4886934,22.5643212" id="Fill-3" fill="#FFFFFF"></path>
                        <path d="M24.234935,7.67540292 L25.1713,8.28522044 L42.0505482,19.2751693 L48.6537453,14.3855416 L44.3839496,-7.15328467e-05 L20.9977161,0.744943066 L14.588373,10.6980234 C13.6301905,12.1805416 14.0554533,14.1591401 15.5383292,15.1173226 C17.0208474,16.0751474 18.999446,15.6498847 19.9576285,14.1673664" id="Fill-5" fill="#FFC05C"></path>
                    </g>
                </g>
            </g>
        </g>
    </g>
</svg>