<svg width="52px" height="41px" viewBox="0 0 52 41">
    <title>Cup</title>
    <defs>
        <polygon id="path-1" points="51.7902895 40.1073737 51.7902895 0.17627037 0 0.17627037 0 40.1073737"></polygon>
    </defs>
    <g id="Page-3" stroke="none" stroke-width="1" fill="none" fill-rule="evenodd">
        <g id="Mobile-Portrait" transform="translate(-10.000000, -1381.000000)">
            <g id="work" transform="translate(0.000000, 914.000000)">
                <g id="cup" transform="translate(0.000000, 449.000000)">
                    <g id="Cup" transform="translate(10.000000, 17.777778)">
                        <polygon id="Fill-1" fill="#FFFFFF" points="10.4562421 18.2066733 10.4562421 28.3177844 20.0351895 27.19444 41.1317947 21.9140807 41.1317947 11.2411289 33.7402684 11.5781659"></polygon>
                        <g id="Group-4" transform="translate(0.000000, 0.160767)">
                            <mask id="mask-2" fill="white">
                                <use xlink:href="#path-1"></use>
                            </mask>
                            <g id="Clip-3"></g>
                            <path d="M38.6311421,20.5056367 L39.1107737,20.8527848 L38.6311421,19.3920663 L37.9760105,17.4032107 L38.6311421,16.9350663 L40.9492474,15.275833 L40.9536947,15.2714515 L37.2723,15.2714515 L36.7755632,13.7682663 L36.1341158,11.82727 L34.9990105,15.2714515 L31.3176158,15.2714515 L34.2953,17.4032107 L33.1560895,20.8527848 L36.1341158,18.7210256 L36.2914842,18.8373033 L38.6311421,20.5056367 Z M27.6584579,20.0684996 L30.6361421,17.9367404 L26.9547474,17.9367404 L25.8210105,14.4871663 L24.6814579,17.9367404 L21.0045105,17.9367404 L23.9777474,20.0684996 L22.8429842,23.5126811 L25.8210105,21.3853033 L28.7976684,23.5126811 L27.6584579,20.0684996 Z M18.0230632,22.7283959 L21.0045105,20.5966367 L17.3238,20.5966367 L16.1845895,17.1480737 L15.0494842,20.5966367 L11.3691158,20.5966367 L14.2051684,22.628633 L14.3461158,22.7283959 L14.2445105,23.0357737 L13.2065632,26.1769589 L14.4562737,25.2851589 L16.1845895,24.0462107 L19.1626158,26.1769589 L18.0230632,22.7283959 Z M38.6311421,23.0313922 C37.6944579,23.2309181 36.7666684,23.4472959 35.8344316,23.6646848 C28.7932211,25.2895404 21.8532737,27.3083922 14.7997474,28.890107 C13.9721947,29.0764885 13.1412211,29.2493885 12.3102474,29.4226256 C11.3116421,29.626533 10.3130368,29.8385293 9.30656316,30.0158107 L9.30656316,16.7055441 C10.7307474,16.450407 12.1515105,16.1642626 13.5633789,15.8612663 C21.4749053,14.1545107 29.2290632,11.818507 37.1279316,10.0591737 C38.9530632,9.65203296 40.7870895,9.26612556 42.6337737,8.93650333 L42.6337737,22.247107 C41.2927211,22.4857293 39.9595368,22.7506404 38.6311421,23.0313922 L38.6311421,23.0313922 Z M51.7905632,14.2364107 C48.8125368,14.2364107 46.6801947,14.3705515 44.4329053,14.6823107 L44.4329053,23.7600663 C43.8123263,23.8419663 43.5006684,23.8854441 42.8756421,23.985207 C41.4548789,24.2325922 40.0385632,24.5133441 38.6311421,24.8082515 L38.6311421,29.1240107 C43.8958,28.0404367 46.5259053,27.6201515 51.7905632,27.6201515 C49.7536684,24.9423922 48.7335105,23.6603033 46.6979842,21.18207 C48.7335105,18.3095033 49.7536684,16.91417 51.7905632,14.2364107 L51.7905632,14.2364107 Z M7.50743158,32.056907 L7.50743158,23.0967774 C5.16777368,23.4351626 3.05664211,23.5780663 -6.84210526e-05,23.5780663 C2.03682632,26.2558256 3.05664211,27.533533 5.09216842,30.0158107 C3.05664211,32.8887144 2.03682632,34.2840478 -6.84210526e-05,36.961807 C4.92556316,36.961807 7.38803684,36.5934256 12.3102474,35.6274774 L12.3102474,31.1951033 C11.1799316,31.4246256 10.0540632,31.6541478 8.91485263,31.8540107 C8.35174737,31.9402922 8.07019474,31.983433 7.50743158,32.056907 L7.50743158,32.056907 Z M37.2993263,8.25231815 L37.6472474,4.60422926 C37.7868263,2.16071074 35.8874579,0.176236667 33.4027474,0.176236667 L16.7384579,0.176236667 C14.2489579,0.176236667 12.3495895,2.16071074 12.4949842,4.60422926 L13.3957474,14.1144033 C21.4266684,12.3995589 29.2861947,10.0247959 37.2993263,8.25231815 L37.2993263,8.25231815 Z M14.9663526,30.6180959 C21.9063,29.0586256 28.7357474,27.087633 35.6633789,25.4792922 L34.7793789,34.7909515 C34.6343263,37.23447 33.4027474,40.1073737 30.9176947,40.1073737 L19.2231684,40.1073737 C16.7340105,40.1073737 15.5034579,37.23447 15.3625105,34.7909515 L14.9663526,30.6180959 Z" id="Fill-2" fill="#FFC05C" mask="url(#mask-2)"></path>
                        </g>
                    </g>
                </g>
            </g>
        </g>
    </g>
</svg>