<svg width="48px" height="48px" viewBox="0 0 48 48" >
    <title>Montag</title>
    <defs>
        <polygon id="path-1" points="23.5235702 0.1972 0.317462296 0.1972 0.317462296 23.59716 23.5235702 23.59716 23.5235702 0.1972"></polygon>
    </defs>
    <g id="Page-3" stroke="none" stroke-width="1" fill="none" fill-rule="evenodd">
        <g id="Mobile-Portrait" transform="translate(-10.000000, -1301.000000)">
            <g id="work" transform="translate(0.000000, 914.000000)">
                <g id="montag" transform="translate(0.000000, 373.000000)">
                    <g id="Montag" transform="translate(10.000000, 14.000000)">
                        <g id="Group-3" transform="translate(0.000000, 0.202800)">
                            <mask id="mask-2" fill="white">
                                <use xlink:href="#path-1"></use>
                            </mask>
                            <g id="Clip-2"></g>
                            <path d="M9.43616529,18.61356 C10.3937851,18.61356 11.3339504,18.46196 12.24,18.17076 L17.6259174,23.59716 L23.5235702,17.65236 L18.1408264,12.21996 C19.1785785,8.94996 18.3252893,5.32756 15.9078347,2.88956 C14.1861818,1.15276 11.8940826,0.19716 9.46076033,0.19716 C8.10089256,0.19716 6.73745455,0.50756 5.51484298,1.09596 C5.33038017,1.18476 5.20066116,1.35796 5.16654545,1.56036 C5.13282645,1.76356 5.19709091,1.96916 5.34109091,2.11476 L11.0066777,7.82956 C11.4255868,8.25116 11.6556694,8.81076 11.6556694,9.40436 C11.6556694,9.99916 11.4247934,10.55756 11.0066777,10.97876 C10.1748099,11.82076 8.71973554,11.82076 7.88509091,10.97716 L2.21712397,5.26316 C2.07193388,5.11676 1.86366942,5.05276 1.66770248,5.08716 C1.46618182,5.12156 1.29560331,5.25156 1.2071405,5.43796 C-0.456991736,8.95556 0.256661157,13.16796 2.98591736,15.91876 C4.70836364,17.65636 6.99966942,18.61356 9.43616529,18.61356" id="Fill-1" fill="#FFC05C" mask="url(#mask-2)"></path>
                        </g>
                        <path d="M38.2114116,29.38548 C37.2526017,29.38548 36.3104529,29.53788 35.4036099,29.82908 L29.4472463,23.82308 L23.5456264,29.77228 L29.5035769,35.77988 C28.4674116,39.04948 29.3199074,42.67068 31.7369653,45.10948 C33.4582215,46.84628 35.7503207,47.80268 38.183643,47.80268 C39.5435107,47.80268 40.9069488,47.49068 42.1303537,46.90308 C42.3148165,46.81428 42.4437421,46.64148 42.4790479,46.43908 C42.5131636,46.23548 42.4473124,46.02988 42.3041058,45.88428 L36.6377256,40.16788 C36.2204033,39.74828 35.9903207,39.18948 35.9895273,38.59588 C35.9895273,38.00148 36.2196099,37.44268 36.638519,37.02148 C37.4735603,36.17868 38.9254612,36.17908 39.7593124,37.02148 L45.426486,42.73508 C45.5708826,42.87988 45.7735934,42.94508 45.9767008,42.91108 C46.1774281,42.87588 46.3488,42.74628 46.4372628,42.56068 C48.101395,39.04268 47.3889322,34.83108 44.658486,32.07948 C42.9368331,30.34268 40.6463207,29.38548 38.2114116,29.38548" id="Fill-4" fill="#FFC05C"></path>
                        <path d="M17.7425455,27.30812 C17.2316033,26.79292 16.3624463,26.75892 15.815405,27.23812 L0.432793388,41.14412 C-0.116628099,41.62252 -0.14677686,42.43532 0.364958678,42.95132 L4.55484298,47.17372 C5.0673719,47.68972 5.87226446,47.66132 6.34591736,47.11052 L20.1417521,31.59492 C20.6134215,31.04412 20.5832727,30.17092 20.0715372,29.65492 L17.7425455,27.30812 Z" id="Fill-6" fill="#FFFFFF"></path>
                        <path d="M35.7872132,15.83928 C35.7872132,15.83928 36.773395,16.71008 37.5854281,16.30328 C38.5045686,15.83688 41.092205,18.40968 41.9181223,19.01168 C41.9205025,19.01408 41.9264529,19.01408 41.9363702,19.01888 L41.4845355,19.47568 C40.8879074,20.06968 40.8890975,21.04048 41.4833455,21.63528 C42.0771967,22.23208 43.0332298,22.23128 43.6282711,21.63528 L47.2020893,18.03608 C47.7919736,17.43768 47.7927669,16.46968 47.2012959,15.87208 C46.6110149,15.27608 45.6494281,15.27608 45.0567669,15.87208 L44.4617256,16.47208 C43.9686347,15.78728 43.1490645,14.62048 43.253395,14.23328 C43.689362,12.53968 40.2654942,8.53968 40.2654942,8.53968 C31.7611636,-0.03392 26.0816926,0.16128 23.3790149,1.09808 C22.2944529,1.47408 22.4955769,1.71288 23.6221884,1.91288 C31.8198744,3.35568 32.837395,8.23088 31.4477752,10.11168 C30.9134281,10.83768 31.6925355,11.71408 31.6925355,11.71408 L31.9856926,12.00808 L18.1434446,25.96328 C18.331081,26.07768 18.5131636,26.20688 18.6738248,26.36968 L21.0028165,28.71568 C21.1610975,28.87528 21.2900231,29.05808 21.4018909,29.24728 L35.2453289,15.29128 L35.7872132,15.83928 Z" id="Fill-8" fill="#FFFFFF"></path>
                    </g>
                </g>
            </g>
        </g>
    </g>
</svg>