<svg width="48px" height="60px" viewBox="0 0 48 60" >
    <title>Smeta</title>
    <defs>
        <polygon id="path-1" points="47.8024082 0.181608247 0 0.181608247 0 58.8865485 47.8024082 58.8865485 47.8024082 0.181608247"></polygon>
    </defs>
    <g id="Page-3" stroke="none" stroke-width="1" fill="none" fill-rule="evenodd">
        <g id="Mobile-Portrait" transform="translate(-10.000000, -1219.000000)">
            <g id="work" transform="translate(0.000000, 914.000000)">
                <g id="smeta" transform="translate(0.000000, 297.000000)">
                    <g id="Smeta" transform="translate(10.000000, 8.309278)">
                        <polygon id="Fill-1" fill="#FFFFFF" points="28.3383093 54.3988454 45.4104742 54.3988454 45.4104742 42.1924948 28.3383093 42.1924948"></polygon>
                        <g id="Group-15" transform="translate(0.000000, 0.313237)">
                            <g id="Group-4">
                                <mask id="mask-2" fill="white">
                                    <use xlink:href="#path-1"></use>
                                </mask>
                                <g id="Clip-3"></g>
                                <path d="M13.4898309,40.6678268 L10.401501,44.1426309 C10.2490887,44.3138474 10.0372948,44.4019299 9.82352165,44.4019299 C9.65428454,44.4019299 9.48405773,44.3460124 9.34154227,44.2321979 L7.41164536,42.6877856 C7.07811959,42.4220536 7.02418144,41.9356206 7.29090309,41.6030845 C7.5571299,41.2695588 8.04306804,41.2156206 8.37609897,41.4823423 L9.73395464,42.5685278 L12.3358515,39.6415175 C12.6189031,39.323332 13.1068206,39.2941361 13.425501,39.5776825 C13.7446763,39.8612289 13.7733773,40.3486515 13.4898309,40.6678268 M13.4898309,33.4821773 L10.401501,36.9569814 C10.2490887,37.1277031 10.0372948,37.2152907 9.82352165,37.2152907 C9.65428454,37.2152907 9.48405773,37.1603629 9.34154227,37.0465485 L7.41164536,35.5021361 C7.07811959,35.2359093 7.02418144,34.7499711 7.29090309,34.4169402 C7.5571299,34.0834144 8.04306804,34.0299711 8.37609897,34.2961979 L9.73395464,35.3823835 L12.3358515,32.455868 C12.6189031,32.1366928 13.1068206,32.1079918 13.425501,32.3915381 C13.7446763,32.6750845 13.7733773,33.1630021 13.4898309,33.4821773 M13.4898309,26.3465072 L10.401501,29.8213113 C10.2490887,29.992033 10.0372948,30.0801155 9.82352165,30.0801155 C9.65428454,30.0801155 9.48405773,30.0246928 9.34154227,29.9108784 L7.41164536,28.366466 C7.07811959,28.1002392 7.02418144,27.614301 7.29090309,27.2812701 C7.5571299,26.9477443 8.04306804,26.894301 8.37609897,27.1605278 L9.73395464,28.2467134 L12.3358515,25.3201979 C12.6189031,25.0015175 13.1068206,24.9728165 13.425501,25.255868 C13.7446763,25.5394144 13.7733773,26.027332 13.4898309,26.3465072 M13.4898309,18.884734 L10.401501,22.3595381 C10.2490887,22.5307546 10.0372948,22.6183423 9.82352165,22.6183423 C9.65428454,22.6183423 9.48405773,22.5634144 9.34154227,22.4496 L7.41164536,20.9051876 C7.07811959,20.6389608 7.02418144,20.1530227 7.29090309,19.8199918 C7.5571299,19.486466 8.04306804,19.4330227 8.37609897,19.6992495 L9.73395464,20.7854351 L12.3358515,17.8589196 C12.6189031,17.5397443 13.1068206,17.5110433 13.425501,17.7945897 C13.7446763,18.0781361 13.7733773,18.5660536 13.4898309,18.884734 M23.4817485,43.7912907 L15.934367,43.7912907 C15.4706969,43.7912907 15.0956041,43.4157031 15.0956041,42.9525278 L15.0956041,42.1137649 C15.0956041,41.6505897 15.4706969,41.2750021 15.934367,41.2750021 L23.4817485,41.2750021 C23.9454186,41.2750021 24.3210062,41.6505897 24.3210062,42.1137649 L24.3210062,42.9525278 C24.3205113,43.4157031 23.9454186,43.7912907 23.4817485,43.7912907 M25.1592742,36.2434144 L15.934367,36.2434144 C15.4706969,36.2434144 15.0956041,35.8678268 15.0956041,35.4046515 L15.0956041,34.5658887 C15.0956041,34.1032082 15.4706969,33.7276206 15.934367,33.7276206 L25.1592742,33.7276206 C25.6224495,33.7276206 25.9980371,34.1032082 25.9980371,34.5658887 L25.9980371,35.4046515 C25.9980371,35.8678268 25.6224495,36.2434144 25.1592742,36.2434144 M29.3525938,21.9864247 L15.934367,21.9864247 C15.4706969,21.9864247 15.0956041,21.6108371 15.0956041,21.1476619 L15.0956041,20.3093938 C15.0956041,19.8457237 15.4706969,19.4706309 15.934367,19.4706309 L29.3525938,19.4706309 C29.8157691,19.4706309 30.1913567,19.8457237 30.1913567,20.3093938 L30.1913567,21.1476619 C30.1908619,21.6108371 29.8157691,21.9864247 29.3525938,21.9864247 M29.3525938,29.534301 L15.934367,29.534301 C15.4706969,29.534301 15.0956041,29.1587134 15.0956041,28.6955381 L15.0956041,27.8567753 C15.0956041,27.3936 15.4706969,27.0180124 15.934367,27.0180124 L29.3525938,27.0180124 C29.8157691,27.0180124 30.1913567,27.3936 30.1913567,27.8567753 L30.1913567,28.6955381 C30.1908619,29.1587134 29.8157691,29.534301 29.3525938,29.534301 M44.0237691,45.7444454 L37.3151505,53.2918268 C36.984099,53.6639505 36.5243876,53.854466 36.0607175,53.854466 C35.6925526,53.854466 35.3224082,53.7342186 35.0136247,53.4867959 L30.8203052,50.1322392 C30.0973361,49.5542598 29.9800577,48.4987546 30.5590268,47.7752907 C31.1370062,47.051332 32.1930062,46.9340536 32.9159753,47.5130227 L35.8657485,49.8724454 L41.5173773,43.5146722 C42.1319753,42.8228784 43.1924289,42.760033 43.8852124,43.3756206 C44.5770062,43.9917031 44.6393567,45.051167 44.0237691,45.7444454 M36.8999753,37.0816825 C30.8786969,37.0816825 25.9980371,41.963332 25.9980371,47.9841155 C25.9980371,54.0053938 30.8786969,58.8865485 36.8999753,58.8865485 C42.9212536,58.8865485 47.8024082,54.0053938 47.8024082,47.9846103 C47.8024082,41.963332 42.9212536,37.0816825 36.8999753,37.0816825 M24.4699546,53.0161979 L3.35440825,53.0161979 C1.50170722,53.0161979 -0.000148453608,51.5143423 -0.000148453608,49.6616412 L-0.000148453608,9.40646598 C-0.000148453608,7.55425979 1.50170722,6.05240412 2.51614021,6.05240412 L9.31234639,6.05240412 C9.25593402,6.33100206 9.22475876,6.61949691 9.22475876,6.91640412 C9.22475876,9.21446598 11.0947794,11.0844866 13.3933361,11.0844866 L24.3452536,11.0844866 C26.6438103,11.0844866 28.5138309,9.21446598 28.5138309,6.86543505 C28.5138309,6.58733196 28.4836454,6.31566186 28.4316866,6.05240412 L33.5459134,6.05240412 C36.2368825,6.05240412 37.7387381,7.55425979 37.7387381,9.40646598 L37.7387381,34.6084454 C37.4601402,34.5911258 37.1830268,34.5658887 36.8999753,34.5658887 C35.7400577,34.5658887 34.6197278,34.7296825 33.5459134,35.0077856 L33.5459134,15.2773113 L4.19317113,15.2773113 L4.19317113,48.8228784 L23.5243052,48.8228784 C23.6163464,50.2970227 23.9384907,51.7078268 24.4699546,53.0161979 M18.8692948,4.37487835 C18.174532,4.37487835 17.6113979,3.81174433 17.6113979,3.11698144 C17.6113979,2.42221856 18.174532,1.85908454 18.8692948,1.85908454 C19.5640577,1.85908454 20.1276866,2.42221856 20.1276866,3.11698144 C20.1276866,3.81174433 19.5640577,4.37487835 18.8692948,4.37487835 M24.3457485,4.37487835 L23.0542021,4.37487835 C22.3638928,4.37487835 21.8047175,3.81520825 21.8047175,3.12539381 L21.8047175,3.08333196 C21.8047175,1.48102268 20.5057485,0.181558763 18.9029443,0.181558763 L18.8356454,0.181558763 C17.2333361,0.181558763 15.934367,1.48102268 15.934367,3.08333196 L15.934367,3.12539381 C15.934367,3.81520825 15.3746969,4.37487835 14.6843876,4.37487835 L13.3933361,4.37487835 C12.017666,4.37487835 10.9022845,5.49025979 10.9022845,6.86543505 L10.9022845,6.91590928 C10.9022845,8.29157938 12.017666,9.40646598 13.3933361,9.40646598 L24.3457485,9.40646598 C25.7214186,9.40646598 26.8363052,8.29157938 26.8363052,6.91590928 L26.8363052,6.86543505 C26.8363052,5.49025979 25.7214186,4.37487835 24.3457485,4.37487835" id="Fill-2" fill="#FFC05C" mask="url(#mask-2)"></path>
                            </g>
                            <path d="M18.8694433,1.85893608 C19.5642062,1.85893608 20.1273402,2.4220701 20.1273402,3.11683299 C20.1273402,3.81159588 19.5642062,4.37522474 18.8694433,4.37522474 C18.1746804,4.37522474 17.6115464,3.81159588 17.6115464,3.11683299 C17.6115464,2.4220701 18.1746804,1.85893608 18.8694433,1.85893608 M13.3929897,9.40681237 L24.3458969,9.40681237 C25.7210722,9.40681237 26.8364536,8.29192577 26.8364536,6.91625567 L26.8364536,6.86578144 C26.8364536,5.49011134 25.7210722,4.37522474 24.3458969,4.37522474 L23.0538557,4.37522474 C22.3640412,4.37522474 21.804866,3.81555464 21.804866,3.12574021 L21.804866,3.08318351 C21.804866,1.48087423 20.5054021,0.181905155 18.9025979,0.181905155 L18.8357938,0.181905155 C17.2329897,0.181905155 15.9340206,1.48087423 15.9340206,3.08318351 L15.9340206,3.12524536 C15.9340206,3.81555464 15.3743505,4.37522474 14.6845361,4.37522474 L13.3929897,4.37522474 C12.0178144,4.37522474 10.9019381,5.49011134 10.9019381,6.86578144 L10.9019381,6.91625567 C10.9019381,8.29192577 12.0178144,9.40681237 13.3929897,9.40681237" id="Fill-5" fill="#FFFFFF"></path>
                            <path d="M7.41159588,20.9051381 L9.34198763,22.4495505 C9.48400825,22.5633649 9.65423505,22.6182928 9.82396701,22.6182928 C10.0372454,22.6182928 10.2490392,22.5307052 10.4014515,22.3594887 L13.4897814,18.8846845 C13.7733278,18.5660041 13.7446268,18.0780866 13.4259464,17.7945402 C13.1067711,17.5114887 12.6188536,17.5396948 12.3358021,17.8588701 L9.73390515,20.7853856 L8.37604948,19.6992 C8.0435134,19.4329732 7.55708041,19.4864165 7.29085361,19.8199423 C7.02413196,20.1529732 7.07856495,20.6389113 7.41159588,20.9051381" id="Fill-7" fill="#FFFFFF"></path>
                            <path d="M7.41159588,28.3665155 L9.34198763,29.9109278 C9.48400825,30.0247423 9.65423505,30.0801649 9.82396701,30.0801649 C10.0372454,30.0801649 10.2490392,29.9920825 10.4014515,29.8213608 L13.4897814,26.3460619 C13.7733278,26.0273814 13.7446268,25.5394639 13.4259464,25.2559175 C13.1067711,24.972866 12.6188536,25.001567 12.3358021,25.3202474 L9.73390515,28.2467629 L8.37604948,27.1605773 C8.0435134,26.8943505 7.55708041,26.9477938 7.29085361,27.2813196 C7.02413196,27.6143505 7.07856495,28.1002887 7.41159588,28.3665155" id="Fill-9" fill="#FFFFFF"></path>
                            <path d="M7.41159588,35.5021361 L9.34198763,37.0465485 C9.48400825,37.1603629 9.65423505,37.2152907 9.82396701,37.2152907 C10.0372454,37.2152907 10.2490392,37.1277031 10.4014515,36.9569814 L13.4897814,33.4816825 C13.7733278,33.1630021 13.7446268,32.6750845 13.4259464,32.3915381 C13.1067711,32.1079918 12.6188536,32.1366928 12.3358021,32.455868 L9.73390515,35.3823835 L8.37604948,34.2961979 C8.0435134,34.0299711 7.55708041,34.0834144 7.29085361,34.4169402 C7.02413196,34.7499711 7.07856495,35.2359093 7.41159588,35.5021361" id="Fill-11" fill="#FFFFFF"></path>
                            <path d="M7.41159588,42.6878845 L9.34198763,44.2322969 C9.48400825,44.3461113 9.65423505,44.401534 9.82396701,44.401534 C10.0372454,44.401534 10.2490392,44.3139464 10.4014515,44.1427299 L13.4897814,40.6679258 C13.7733278,40.3487505 13.7446268,39.8613278 13.4259464,39.5772866 C13.1067711,39.2942351 12.6188536,39.3229361 12.3358021,39.6416165 L9.73390515,42.5686268 L8.37604948,41.4824412 C8.0435134,41.2157196 7.55708041,41.2696577 7.29085361,41.6031835 C7.02413196,41.9357196 7.07856495,42.4221526 7.41159588,42.6878845" id="Fill-13" fill="#FFFFFF"></path>
                        </g>
                    </g>
                </g>
            </g>
        </g>
    </g>
</svg>