<svg width="48px" height="48px" viewBox="0 0 48 48" >
    <title>Tel</title>
    <g id="Page-3" stroke="none" stroke-width="1" fill="none" fill-rule="evenodd">
        <g id="Mobile-Portrait" transform="translate(-10.000000, -997.000000)">
            <g id="work" transform="translate(0.000000, 914.000000)">
                <g id="tel" transform="translate(0.000000, 69.000000)">
                    <g id="Tel" transform="translate(10.000000, 14.000000)">
                        <path d="M41.3449008,40.28912 C41.3344134,40.28912 41.3344134,40.29952 41.3449008,40.28912 C40.9512202,40.70952 40.5478588,41.08952 40.1142454,41.50952 C39.4587832,42.12992 38.7928336,42.77992 38.1676235,43.50992 C37.1487328,44.59032 35.9487328,45.10032 34.3752202,45.10032 C34.2239597,45.10032 34.0622118,45.10032 33.9113546,45.09072 C30.9159933,44.90072 28.1315899,43.74032 26.044195,42.75032 C20.3350185,40.00912 15.3220437,36.11832 11.1565311,31.18752 C7.71747227,27.07632 5.41750588,23.27552 3.89481681,19.19472 C2.95659832,16.70432 2.61374118,14.76352 2.76500168,12.93352 C2.86584202,11.76272 3.31962353,10.79272 4.15659832,9.96272 L7.59646387,6.55152 C8.09017815,6.09152 8.6145479,5.84152 9.12923697,5.84152 C9.76453109,5.84152 10.2788168,6.22192 10.6019092,6.54192 L10.6321613,6.57192 C11.2476908,7.14232 11.8321613,7.73232 12.4476908,8.36232 C12.7606992,8.68232 13.0833882,9.00232 13.4056739,9.33272 L16.1594218,12.06312 C17.2283294,13.12352 17.2283294,14.10352 16.1594218,15.16392 C15.8665815,15.45432 15.5846319,15.74432 15.2917916,16.02392 C14.4447328,16.88392 13.6376067,17.68432 12.7606992,18.46472 C12.7405311,18.48472 12.720363,18.49472 12.7098756,18.51432 C11.8426487,19.37472 12.0039933,20.21512 12.1851025,20.78472 L12.215758,20.87512 C12.9317244,22.59552 13.9405311,24.21592 15.4737076,26.14632 L15.4837916,26.15632 C18.2677916,29.55672 21.2022454,32.20792 24.4400269,34.23792 C24.8538756,34.49832 25.277405,34.70832 25.6807664,34.90792 C26.044195,35.08832 26.3870521,35.25832 26.6794891,35.43832 C26.7198252,35.45872 26.7601613,35.48832 26.8004975,35.50832 C27.1433546,35.67832 27.4660437,35.75832 27.7988168,35.75832 C28.636195,35.75832 29.1605647,35.23832 29.3319933,35.06832 L32.7815395,31.64752 C33.1248,31.30712 33.6693378,30.89752 34.3046319,30.89752 C34.9302454,30.89752 35.4441277,31.28712 35.7571361,31.62752 L41.3344134,37.15872 C42.3738756,38.17872 42.3738756,39.22952 41.3449008,40.28912 L41.3449008,40.28912 Z M37.7340101,29.75712 C36.7554555,28.74712 35.5752202,28.20712 34.3248,28.20712 C33.0840605,28.20712 31.8941445,28.73672 30.8756571,29.74712 L27.6878924,32.89792 C27.4253042,32.75752 27.1635227,32.62792 26.9114218,32.49792 C26.5483966,32.31792 26.2051361,32.14752 25.9126992,31.96752 C22.9270185,30.08712 20.2140101,27.63632 17.6115227,24.46592 C16.3510185,22.88552 15.5039597,21.55512 14.8888336,20.20512 C15.715321,19.45512 16.4821109,18.67432 17.2283294,17.92432 C17.5110857,17.64432 17.7934387,17.35432 18.076195,17.07392 C20.193842,14.97392 20.193842,12.25312 18.076195,10.15272 L15.3220437,7.42192 C15.009842,7.11192 14.6867496,6.79192 14.3842286,6.47232 C13.7791866,5.85192 13.1438924,5.21152 12.4884303,4.61152 C11.5094723,3.65112 10.339321,3.14112 9.10906891,3.14112 C7.87841345,3.14112 6.68849748,3.65112 5.68009412,4.61152 L5.65992605,4.63152 L2.23014454,8.06232 C0.939388235,9.34232 0.20285042,10.90272 0.0415058824,12.71312 C-0.200510924,15.63392 0.666715966,18.35472 1.33266555,20.13472 C2.96627899,24.50592 5.40782521,28.55672 9.04856471,32.89792 C13.4661782,38.12912 18.7816739,42.25992 24.8538756,45.17072 C27.1732034,46.26072 30.2702118,47.55112 33.7294387,47.77072 C33.9416067,47.78112 34.1634555,47.79072 34.3651361,47.79072 C36.6953546,47.79072 38.6520605,46.96112 40.1848336,45.31032 C40.1949176,45.29032 40.2150857,45.28032 40.2255731,45.26032 C40.7499429,44.63032 41.3545815,44.05992 41.9906824,43.44992 C42.4238924,43.03992 42.8675899,42.60992 43.3016067,42.15952 C44.3003294,41.12952 44.8242958,39.92912 44.8242958,38.69912 C44.8242958,37.45912 44.289842,36.26832 43.2713546,35.26792 L37.7340101,29.75712 Z" id="Fill-1" fill="#FFFFFF"></path>
                        <path d="M25.7918924,11.67296 C28.4343126,12.11296 30.8351193,13.35376 32.7514891,15.25376 C34.6678588,17.15416 35.908195,19.53456 36.3623798,22.15536 C36.4733042,22.81576 37.0480941,23.27576 37.7039597,23.27576 C37.7842286,23.27576 37.8552202,23.26536 37.9358924,23.25576 C38.6821109,23.13536 39.1762286,22.43576 39.0552202,21.69536 C38.5106824,18.52456 36.9976739,15.63376 34.6880269,13.34336 C32.3779765,11.05256 29.462884,9.55256 26.265842,9.01216 C25.5196235,8.89256 24.8238252,9.38256 24.6923294,10.11256 C24.561237,10.84296 25.0452706,11.55296 25.7918924,11.67296" id="Fill-3" fill="#FFC05C"></path>
                        <path d="M47.6990118,21.30496 C46.8015328,16.08416 44.3200538,11.33296 40.5074824,7.55176 C36.6953143,3.77136 31.9041882,1.31096 26.6391126,0.42056 C25.9025748,0.29056 25.2067765,0.79056 25.0760874,1.52096 C24.9546756,2.26056 25.4487933,2.95136 26.1954151,3.08136 C30.8957849,3.87136 35.1823059,6.08216 38.591516,9.45296 C42.0003227,12.83336 44.2196168,17.08456 45.0162555,21.74536 C45.1271798,22.40536 45.7019697,22.86536 46.3574319,22.86536 C46.4381042,22.86536 46.5090958,22.85576 46.5893647,22.84536 C47.3263059,22.73536 47.8305076,22.03496 47.6990118,21.30496" id="Fill-5" fill="#FFC05C"></path>
                    </g>
                </g>
            </g>
        </g>
    </g>
</svg>