<svg width="48px" height="48px" viewBox="0 0 48 48" >
    <title>Zamer</title>
    <g id="Page-3" stroke="none" stroke-width="1" fill="none" fill-rule="evenodd">
        <g id="Mobile-Portrait" transform="translate(-10.000000, -1073.000000)">
            <g id="work" transform="translate(0.000000, 914.000000)">
                <g id="zamer" transform="translate(0.000000, 145.000000)">
                    <g id="Zamer" transform="translate(10.000000, 14.000000)">
                        <path d="M0,4.03361345e-05 L0,47.7890824 L47.789042,47.7890824 L0,4.03361345e-05 Z M9.89001681,23.8705613 L23.9193277,37.9043092 L9.89001681,37.9043092 L9.89001681,23.8705613 Z" id="Fill-1" fill="#FFC05C"></path>
                        <g id="Group-28" transform="translate(3.630252, 5.436101)" fill="#FFFFFF">
                            <path d="M0.453620168,2.14346218 C0.131334454,2.4657479 0.131334454,2.98890756 0.453620168,3.31038655 C0.614157983,3.47092437 0.827536134,3.55240336 1.03647731,3.55240336 C1.24985546,3.55240336 1.45879664,3.47092437 1.62054454,3.31038655 L3.36629244,1.56463866 L2.20340168,0.397714286 L0.453620168,2.14346218 Z" id="Fill-2"></path>
                            <path d="M2.20352269,7.39018487 C2.3640605,7.54668908 2.57340504,7.63139496 2.78637983,7.63139496 C2.99653109,7.63139496 3.20990924,7.54668908 3.37044706,7.39018487 L6.28311933,4.47751261 L5.11619496,3.31058824 L2.20352269,6.2232605 C1.8820437,6.54554622 1.8820437,7.06870588 2.20352269,7.39018487" id="Fill-4"></path>
                            <path d="M6.28328067,9.13601345 C6.43978487,9.29776134 6.65316303,9.37803025 6.86331429,9.37803025 C7.07628908,9.37803025 7.28563361,9.29776134 7.44617143,9.13601345 L9.19595294,7.39026555 L8.02902857,6.22334118 L6.28328067,7.97433277 C5.96099496,8.2954084 5.96099496,8.81453445 6.28328067,9.13601345" id="Fill-6"></path>
                            <path d="M8.02910924,13.2157714 C8.19085714,13.3775193 8.39979832,13.4577882 8.61317647,13.4577882 C8.82211765,13.4577882 9.0354958,13.3775193 9.19603361,13.2157714 L12.1087059,10.3030992 L10.9417815,9.13617479 L8.02910924,12.0496538 C7.70763025,12.3711328 7.70763025,12.8942924 8.02910924,13.2157714" id="Fill-8"></path>
                            <path d="M12.1088672,14.9626487 C12.2706151,15.1231866 12.4795563,15.2034555 12.6929345,15.2034555 C12.9018756,15.2034555 13.1152538,15.1231866 13.271758,14.9626487 L15.0215395,13.2156908 L13.8558252,12.0499765 L12.1088672,13.799758 C11.7873882,14.121237 11.7873882,14.640363 12.1088672,14.9626487" id="Fill-10"></path>
                            <path d="M13.8557445,17.8754017 C13.5334588,18.1968807 13.5334588,18.7200403 13.8557445,19.0423261 C14.0162824,19.2028639 14.2296605,19.2835361 14.4386017,19.2835361 C14.6479462,19.2835361 14.860921,19.2028639 15.0218622,19.0423261 L17.9353412,16.1284437 L16.7684168,14.9627294 L13.8557445,17.8754017 Z" id="Fill-12"></path>
                            <path d="M17.9355025,20.788195 C18.0960403,20.9487328 18.3053849,21.029405 18.5183597,21.029405 C18.7277042,21.029405 18.940679,20.9487328 19.1016202,20.788195 L20.8481748,19.0424471 L19.6812504,17.8755227 L17.9355025,19.6253042 C17.6132168,19.9475899 17.6132168,20.4699429 17.9355025,20.788195" id="Fill-14"></path>
                            <path d="M19.6813311,24.8679529 C19.8418689,25.0284908 20.0552471,25.109163 20.2641882,25.109163 C20.4775664,25.109163 20.6865076,25.0284908 20.8482555,24.8679529 L23.7609277,21.9552807 L22.5940034,20.7883563 L19.6813311,23.7050622 C19.3590454,24.0265412 19.3590454,24.5456672 19.6813311,24.8679529" id="Fill-16"></path>
                            <path d="M23.7610891,26.6178958 C23.9216269,26.7744 24.135005,26.8591059 24.3439462,26.8591059 C24.5532908,26.8591059 24.7662655,26.7744 24.9280134,26.6178958 L26.6737613,24.8681143 L25.5108706,23.7052235 L23.7610891,25.4509714 C23.4388034,25.7732571 23.4388034,26.2964168 23.7610891,26.6178958" id="Fill-18"></path>
                            <path d="M25.5109916,30.6935395 C25.6674958,30.8540773 25.8808739,30.9347496 26.0898151,30.9347496 C26.3031933,30.9347496 26.5133445,30.8540773 26.6738824,30.6935395 L29.5865546,27.7808672 L28.4236639,26.6179765 L25.5109916,29.5306487 C25.1887059,29.8529345 25.1887059,30.3720605 25.5109916,30.6935395" id="Fill-20"></path>
                            <path d="M29.5866756,31.2775664 C29.2651966,31.5990454 29.2651966,32.122205 29.5866756,32.443684 C29.7472134,32.6050286 29.9605916,32.6857008 30.1695328,32.6857008 C30.3829109,32.6857008 30.5930622,32.6050286 30.7536,32.443684 L32.4993479,30.6934992 L31.3364571,29.5306084 L29.5866756,31.2775664 Z" id="Fill-22"></path>
                            <path d="M31.3365782,36.5191261 C31.497116,36.6808739 31.7072672,36.7611429 31.9166118,36.7611429 C32.1295866,36.7611429 32.3389311,36.6808739 32.4994689,36.5191261 L35.4121412,33.6064538 L34.2492504,32.443563 L31.3365782,35.3562353 C31.0150992,35.678521 31.0150992,36.1976471 31.3365782,36.5191261" id="Fill-24"></path>
                            <path d="M35.4122218,38.2700773 C35.5727597,38.4306151 35.7873479,38.5112874 35.9962891,38.5112874 C36.2092639,38.5112874 36.4186084,38.4306151 36.5791462,38.2700773 L38.3248941,36.5190857 L37.1620034,35.356195 L35.4122218,37.1031529 C35.0907429,37.4246319 35.0907429,37.9477916 35.4122218,38.2700773" id="Fill-26"></path>
                        </g>
                    </g>
                </g>
            </g>
        </g>
    </g>
</svg>