<?xml version="1.0" standalone="no"?>
<!DOCTYPE svg PUBLIC "-//W3C//DTD SVG 20010904//EN"
 "http://www.w3.org/TR/2001/REC-SVG-20010904/DTD/svg10.dtd">
<svg version="1.0" xmlns="http://www.w3.org/2000/svg"
 width="700.000000pt" height="700.000000pt" viewBox="0 0 700.000000 700.000000"
 preserveAspectRatio="xMidYMid meet">
<metadata>
Created by potrace 1.11, written by Peter Selinger 2001-2013
</metadata>
<g transform="translate(0.000000,700.000000) scale(0.100000,-0.100000)"
fill="#000000" stroke="none">
<path d="M0 3500 l0 -3500 3478 0 3479 0 21 23 22 23 0 3453 0 3452 -25 24
-24 25 -3476 0 -3475 0 0 -3500z m6562 3352 c146 -48 251 -154 293 -295 13
-45 15 -398 15 -3057 0 -2659 -2 -3012 -15 -3057 -42 -141 -147 -247 -293
-295 -52 -17 -126 -18 -1351 -18 l-1296 0 -245 532 c-135 292 -246 535 -248
539 -2 4 23 9 55 11 l58 3 935 2022 935 2022 5 -1997 c3 -1098 9 -2005 13
-2014 22 -45 188 -52 230 -10 l22 23 0 2274 0 2274 -23 23 c-20 21 -32 23
-122 23 -93 0 -101 -2 -123 -25 -14 -14 -482 -1016 -1042 -2228 -560 -1212
-1021 -2205 -1025 -2207 -3 -2 -439 940 -969 2093 -531 1153 -968 2101 -973
2107 -4 5 -8 -968 -8 -2162 l0 -2172 -26 -20 c-38 -30 -160 -30 -198 0 l-26
20 0 2295 0 2294 70 0 c39 0 70 2 70 3 0 2 -101 224 -225 493 -124 269 -228
497 -231 506 -5 17 126 18 2839 18 2720 0 2846 -1 2899 -18z"/>
</g>
</svg>
