<svg  width="32" height="32" viewBox="0 0 512 512"><path fill="#000" d="M509.9 223.4C493.9 97.4 386.3 0 256 0 114.6 0 0 114.6 0 256s114.6 256 256 256c130.3 0 237.9-97.4 253.9-223.4 1.4-10.7 2.1-21.6 2.1-32.6s-.7-21.9-2.1-32.6zM490.5 256c0 31.7-6.2 62.4-18.4 91.3-11.8 27.9-28.7 53-50.3 74.5-21.5 21.5-46.6 38.5-74.5 50.3-28.9 12.2-59.6 18.4-91.3 18.4s-62.4-6.2-91.3-18.4c-27.9-11.8-53-28.7-74.5-50.3-21.5-21.5-38.5-46.6-50.3-74.5-12.2-28.9-18.4-59.6-18.4-91.3s6.2-62.4 18.4-91.3c11.8-27.9 28.7-53 50.3-74.5 21.5-21.5 46.6-38.5 74.5-50.3 28.9-12.2 59.6-18.4 91.3-18.4s62.4 6.2 91.3 18.4c27.9 11.8 53 28.7 74.5 50.3 21.5 21.5 38.5 46.6 50.3 74.5 12.2 28.9 18.4 59.6 18.4 91.3zm-203-148.7c18.8.4 33.2.8 44.1 1.1v49.1h-27.2s-27.9-2.4-27.9 23.2V216h52.2l-6.5 52.5h-45.7v136.3H222V268.5h-46.7V216H222v-40.2c0-.1-2.5-70 65.5-68.5z"></path></svg>