<svg width="32" height="32" viewBox="0 0 512 512"><path fill="#000" d="M292.74 246.89c.887 13.08-.38 26.29-4.04 38.847-4.452 15.343-12.887 29.592-24.673 40.435-11.153 10.265-25.14 17.338-39.912 20.744-16.34 3.722-33.624 3.825-49.86-.523-12.888-3.406-24.983-9.584-35.407-17.86-11.002-8.746-20.11-19.954-26.448-32.524-9.742-19.276-12.728-41.85-8.435-63.01 1.727-8.54 4.555-16.76 8.483-24.517 11.263-22.47 31.477-40.222 55.2-48.34 21.054-7.28 44.674-7.122 65.624.577 11.628 4.294 22.258 11.003 31.374 19.43l-.028.03c.007.007.02.014.028.02-3.04 3.304-6.337 6.393-9.48 9.585l-17.91 17.91c-5.917-5.657-13.148-10.005-21.005-12.365-9.22-2.78-19.164-3.142-28.59-1.147-11.05 2.36-21.267 8.12-29.117 16.182-6.377 6.48-11.186 14.373-14.117 22.94-4.156 12.177-4.15 25.697.028 37.82l-.082.062c.015.034.02.062.03.096.315.943.804 1.81 1.17 2.73 4.306 10.803 11.565 20.38 21.087 27.068 6.494 4.558 13.932 7.805 21.686 9.38 7.645 1.57 15.557 1.36 23.256.056 7.644-1.362 15.033-4.135 21.473-8.483.013.008.02.02.033.03 10.183-6.854 17.386-17.924 19.437-30.04h-53.05v-.055h-.055c.055-12.673.055-25.347.055-38.027h91.66c.013.097.02.187.033.283.736 4.19 1.252 8.42 1.54 12.666.014-.003.014-.003.014.004zm86.534-13.125v-27.843H351.68v27.843h-27.84v27.593h27.843V289.2h27.594v-27.84h27.843v-27.593h-27.843zM256.144.442C115.197.442.53 115.11.53 256.062c0 140.942 114.668 255.61 255.614 255.61S511.76 397.002 511.76 256.06C511.76 115.11 397.09.443 256.144.443zm0 490.124c-129.31 0-234.51-105.2-234.51-234.502 0-129.316 105.202-234.516 234.51-234.516s234.51 105.2 234.51 234.516c0 129.303-105.2 234.502-234.51 234.502z"></path></svg>