<svg width="32" height="32" viewBox="0 0 512 512"><path fill="#000" d="M146.9 192.5h48.9v157.2h-48.9V192.5zm24.5-78.1c-15.7 0-28.4 12.7-28.4 28.3 0 15.6 12.7 28.3 28.4 28.3 15.6 0 28.3-12.7 28.3-28.3.1-15.6-12.6-28.3-28.3-28.3zm148.9 74.2c-23.8 0-39.7 13-46.3 25.4h-.7v-21.5h-46.9v157.2h48.8V272c0-20.5 3.9-40.4 29.3-40.4 25.1 0 25.4 23.4 25.4 41.7v76.4H379v-86.2c0-42.3-9.2-74.9-58.7-74.9zM512 256c0 141.4-114.6 256-256 256S0 397.4 0 256 114.6 0 256 0s256 114.6 256 256zm-39.9 91.3c12.2-28.9 18.4-59.6 18.4-91.3s-6.2-62.4-18.4-91.3c-11.8-27.9-28.7-53-50.3-74.5-21.5-21.5-46.6-38.5-74.5-50.3-28.9-12.2-59.6-18.4-91.3-18.4-31.7 0-62.4 6.2-91.3 18.4-27.9 11.8-53 28.7-74.5 50.3-21.5 21.5-38.5 46.6-50.3 74.5-12.2 28.9-18.4 59.6-18.4 91.3s6.2 62.4 18.4 91.3c11.8 27.9 28.7 53 50.3 74.5 21.5 21.5 46.6 38.5 74.5 50.3 28.9 12.2 59.6 18.4 91.3 18.4 31.7 0 62.4-6.2 91.3-18.4 27.9-11.8 53-28.7 74.5-50.3 21.6-21.5 38.5-46.6 50.3-74.5z"></path></svg>