<svg width="32" height="32" viewBox="0 0 512 512"><path fill="#000" d="M369 182.4c11.2-1.3 21.9-4.3 31.8-8.7-7.4 11.1-16.8 20.9-27.6 28.7.1 2.4.2 4.8.2 7.2 0 73.2-55.7 157.5-157.5 157.5-31.3 0-60.4-9.2-84.9-24.9 4.3.5 8.7.8 13.2.8 25.9 0 49.8-8.8 68.8-23.7-24.2-.4-44.7-16.5-51.7-38.4 3.4.6 6.8 1 10.4 1 5 0 9.9-.7 14.6-1.9-25.3-5.1-44.4-27.5-44.4-54.3v-.7c7.5 4.1 16 6.6 25.1 6.9-14.9-9.9-24.6-26.9-24.6-46.1 0-10.1 2.7-19.7 7.5-27.8 27.3 33.5 68.1 55.5 114.1 57.8-.9-4.1-1.4-8.3-1.4-12.6 0-30.6 24.8-55.4 55.4-55.4 15.9 0 30.3 6.7 40.4 17.5 12.6-2.5 24.5-7.1 35.2-13.4-4.3 12.8-13.1 23.6-24.6 30.5zM512 256c0 141.4-114.6 256-256 256S0 397.4 0 256 114.6 0 256 0s256 114.6 256 256zm-90.2 165.8c21.5-21.5 38.5-46.6 50.3-74.5 12.2-28.9 18.4-59.6 18.4-91.3s-6.2-62.4-18.4-91.3c-11.8-27.9-28.7-53-50.3-74.5-21.5-21.5-46.6-38.5-74.5-50.3-28.9-12.2-59.6-18.4-91.3-18.4s-62.4 6.2-91.3 18.4c-27.9 11.8-53 28.7-74.5 50.3-21.5 21.5-38.5 46.6-50.3 74.5-12.2 28.9-18.4 59.6-18.4 91.3s6.2 62.4 18.4 91.3c11.8 27.9 28.7 53 50.3 74.5 21.5 21.5 46.6 38.5 74.5 50.3 28.9 12.2 59.6 18.4 91.3 18.4s62.4-6.2 91.3-18.4c27.9-11.8 53-28.7 74.5-50.3z"></path></svg>