<?xml version="1.0" encoding="UTF-8" standalone="no"?>
<svg width="71px" height="64px" viewBox="0 0 71 64" version="1.1" xmlns="http://www.w3.org/2000/svg" xmlns:xlink="http://www.w3.org/1999/xlink">
    <!-- Generator: Sketch 41 (35326) - http://www.bohemiancoding.com/sketch -->
    <title>clock</title>
    <desc>Created with Sketch.</desc>
    <defs></defs>
    <g id="Page-3" stroke="none" stroke-width="1" fill="none" fill-rule="evenodd">
        <g id="Mobile-Portrait" transform="translate(-31.000000, -358.000000)">
            <g id="Page-1" transform="translate(20.000000, 324.000000)">
                <g id="clock" transform="translate(10.000000, 33.500000)">
                    <path d="M36.3063359,62.3165107 C22.9268941,62.3165107 12.04118,51.6787253 12.04118,38.6029451 C12.04118,25.5271649 22.9268941,14.8889024 36.3063359,14.8889024 C49.6862657,14.8889024 60.5719798,25.5271649 60.5719798,38.6029451 C60.5719798,51.6787253 49.6862657,62.3165107 36.3063359,62.3165107" id="Fill-3" fill="#FFC05C"></path>
                    <path d="M36.3064823,12.735873 C21.6882305,12.735873 9.83802121,24.316706 9.83802121,38.6026589 C9.83802121,52.8886118 21.6882305,64.4694447 36.3064823,64.4694447 C50.9247341,64.4694447 62.7749434,52.8886118 62.7749434,38.6026589 C62.7749434,24.316706 50.9247341,12.735873 36.3064823,12.735873 M36.3064823,17.0423134 C48.4715192,17.0423134 58.3683329,26.7141549 58.3683329,38.6026589 C58.3683329,50.4911628 48.4715192,60.1630043 36.3064823,60.1630043 C24.1414454,60.1630043 14.2446317,50.4911628 14.2446317,38.6026589 C14.2446317,26.7141549 24.1414454,17.0423134 36.3064823,17.0423134" id="Fill-5" fill="#000000"></path>
                    <path d="M63.3042931,18.6536033 L52.0412739,11.1240108 C50.2684772,9.93864253 49.8106348,7.55168776 51.0230872,5.81966682 L53.275203,2.60271579 C54.4876554,0.870217841 56.930132,0.422783073 58.7024407,1.60767429 L69.9654598,9.13726683 C71.7382566,10.3226351 72.196587,12.7091128 70.9836465,14.4416108 L68.7320189,17.6585618 C67.5190784,19.3910597 65.0770899,19.8384945 63.3042931,18.6536033" id="Fill-7" fill="#000000"></path>
                    <path d="M9.30872032,18.6536033 L20.5717395,11.1240108 C22.3445363,9.93864253 22.8023786,7.55168776 21.5899262,5.81966682 L19.3378104,2.60271579 C18.125358,0.870217841 15.6828814,0.422783073 13.9105727,1.60767429 L2.64755359,9.13726683 C0.874756815,10.3226351 0.416426371,12.7091128 1.6293669,14.4416108 L3.88099452,17.6585618 C5.09393504,19.3910597 7.53592355,19.8384945 9.30872032,18.6536033" id="Fill-9" fill="#000000"></path>
                    <path d="M36.6511331,35.019794 L35.9619291,35.019794 C35.1999974,35.019794 34.5766876,35.6289349 34.5766876,36.3735465 L34.5766876,53.7710314 C34.5766876,54.515166 35.1999974,55.1243069 35.9619291,55.1243069 L36.6511331,55.1243069 C37.4130648,55.1243069 38.0363747,54.515166 38.0363747,53.7710314 L38.0363747,36.3735465 C38.0363747,35.6289349 37.4130648,35.019794 36.6511331,35.019794" id="Fill-11" fill="#000000"></path>
                    <path d="M35.0744081,37.0861985 L35.5615367,37.5622538 C36.1004044,38.0888721 36.9819218,38.0888721 37.5203014,37.5622538 L46.3384034,28.94508 C46.8772712,28.4184616 46.8772712,27.5569828 46.3384034,27.0308414 L45.8512748,26.5543091 C45.3124071,26.0281678 44.4308897,26.0281678 43.8925101,26.5543091 L35.0744081,35.17196 C34.5355403,35.6985783 34.5355403,36.5595802 35.0744081,37.0861985" id="Fill-13" fill="#000000"></path>
                </g>
            </g>
        </g>
    </g>
</svg>