<?xml version="1.0" encoding="UTF-8" standalone="no"?>
<svg width="72px" height="56px" viewBox="0 0 72 56" version="1.1" xmlns="http://www.w3.org/2000/svg" xmlns:xlink="http://www.w3.org/1999/xlink">
    <!-- Generator: Sketch 41 (35326) - http://www.bohemiancoding.com/sketch -->
    <title>card</title>
    <desc>Created with Sketch.</desc>
    <defs></defs>
    <g id="Page-3" stroke="none" stroke-width="1" fill="none" fill-rule="evenodd">
        <g id="Mobile-Portrait" transform="translate(-30.000000, -658.000000)">
            <g id="Page-3" transform="translate(20.000000, 620.000000)">
                <g id="card" transform="translate(10.000000, 38.500000)">
                    <polygon id="Fill-3" fill="#FFC05C" points="0.26630137 23.923018 71.7731507 23.923018 71.7731507 11.5356306 0.26630137 11.5356306"></polygon>
                    <path d="M65.8551945,0.316274775 L6.18396164,0.316274775 C2.91585205,0.316274775 0.266153425,2.97857207 0.266153425,6.26222072 L0.266153425,48.8748333 C0.266153425,52.158482 2.91585205,54.8207793 6.18396164,54.8207793 L65.8551945,54.8207793 C69.1233041,54.8207793 71.7730027,52.158482 71.7730027,48.8748333 L71.7730027,6.26222072 C71.7730027,2.97857207 69.1233041,0.316274775 65.8551945,0.316274775 M65.8551945,4.34168018 C66.9090575,4.34168018 67.7666466,5.20334685 67.7666466,6.26222072 L67.7666466,48.8748333 C67.7666466,49.9337072 66.9090575,50.7953739 65.8551945,50.7953739 L6.18396164,50.7953739 C5.13009863,50.7953739 4.27250959,49.9337072 4.27250959,48.8748333 L4.27250959,6.26222072 C4.27250959,5.20334685 5.13009863,4.34168018 6.18396164,4.34168018 L65.8551945,4.34168018" id="Fill-5" fill="#000000"></path>
                </g>
            </g>
        </g>
    </g>
</svg>