<?xml version="1.0" encoding="UTF-8" standalone="no"?>
<svg width="72px" height="40px" viewBox="0 0 72 40" version="1.1" xmlns="http://www.w3.org/2000/svg" xmlns:xlink="http://www.w3.org/1999/xlink">
    <!-- Generator: Sketch 41 (35326) - http://www.bohemiancoding.com/sketch -->
    <title>fura</title>
    <desc>Created with Sketch.</desc>
    <defs></defs>
    <g id="Page-3" stroke="none" stroke-width="1" fill="none" fill-rule="evenodd">
        <g id="Mobile-Portrait" transform="translate(-30.000000, -814.000000)">
            <g id="Page-4" transform="translate(20.000000, 768.000000)">
                <g id="fura" transform="translate(10.000000, 46.000000)">
                    <polygon id="Fill-3" fill="#FFC05C" points="25.9378022 28.0227451 71.6202198 28.0227451 71.6202198 0.236470588 25.9378022 0.236470588"></polygon>
                    <path d="M13.5602505,28.7778039 C10.5315033,28.7778039 8.07598681,31.2119216 8.07598681,34.2142745 C8.07598681,37.2166275 10.5315033,39.6507451 13.5602505,39.6507451 C16.5889978,39.6507451 19.0445143,37.2166275 19.0445143,34.2142745 C19.0445143,31.2119216 16.5889978,28.7778039 13.5602505,28.7778039 M13.5602505,31.2695686 C15.1984484,31.2695686 16.530844,32.5907451 16.530844,34.2142745 C16.530844,35.8381961 15.1984484,37.1589804 13.5602505,37.1589804 C11.9220527,37.1589804 10.5896571,35.8381961 10.5896571,34.2142745 C10.5896571,32.5907451 11.9220527,31.2695686 13.5602505,31.2695686" id="Fill-5" fill="#000000"></path>
                    <path d="M51.6454813,28.7778039 C48.6167341,28.7778039 46.1612176,31.2119216 46.1612176,34.2142745 C46.1612176,37.2166275 48.6167341,39.6507451 51.6454813,39.6507451 C54.6742286,39.6507451 57.1297451,37.2166275 57.1297451,34.2142745 C57.1297451,31.2119216 54.6742286,28.7778039 51.6454813,28.7778039 M51.6454813,31.2695686 C53.2836791,31.2695686 54.6160747,32.5907451 54.6160747,34.2142745 C54.6160747,35.8381961 53.2836791,37.1589804 51.6454813,37.1589804 C50.0072835,37.1589804 48.6748879,35.8381961 48.6748879,34.2142745 C48.6748879,32.5907451 50.0072835,31.2695686 51.6454813,31.2695686" id="Fill-6" fill="#000000"></path>
                    <path d="M71.6203385,29.6838431 L57.4929099,29.6838431 C58.4807341,30.9340392 59.0721626,32.5065882 59.0721626,34.2144314 L66.1558549,34.2144314 L71.6203385,32.628549 L71.6203385,29.6838431 Z" id="Fill-7" fill="#000000"></path>
                    <path d="M19.8443473,18.8486667 L10.0183253,18.8486667 L12.9129626,10.014549 L19.8443473,10.014549 L19.8443473,18.8486667 Z M23.5005231,29.6839608 L23.5005231,4.16278431 L10.932567,4.16278431 L10.932567,7.11847059 L6.97138022,18.8863137 L0.0961714286,21.982 L0.0961714286,34.2141569 L6.13349011,34.2141569 C6.13349011,30.1549412 9.46527033,26.8521961 13.5601714,26.8521961 C17.6554681,26.8521961 20.9868527,30.1549412 20.9868527,34.2141569 L44.2187209,34.2141569 C44.2187209,32.5067059 44.8101495,30.9341569 45.7979736,29.6839608 L23.5005231,29.6839608 Z" id="Fill-8" fill="#000000"></path>
                </g>
            </g>
        </g>
    </g>
</svg>