<?xml version="1.0" encoding="UTF-8" standalone="no"?>
<svg width="93px" height="92px" viewBox="0 0 93 92" version="1.1" xmlns="http://www.w3.org/2000/svg" xmlns:xlink="http://www.w3.org/1999/xlink">
    <!-- Generator: Sketch 41 (35326) - http://www.bohemiancoding.com/sketch -->
    <title>logo</title>
    <desc>Created with Sketch.</desc>
    <defs>
        <polygon id="path-1" points="29.5259767 58.1401604 0 58.1401604 0 0.303313218 29.5259767 0.303313218 59.0519534 0.303313218 59.0519534 58.1401604 29.5259767 58.1401604"></polygon>
        <filter x="-50%" y="-50%" width="200%" height="200%" filterUnits="objectBoundingBox" id="filter-3">
            <feOffset dx="2" dy="2" in="SourceAlpha" result="shadowOffsetOuter1"></feOffset>
            <feGaussianBlur stdDeviation="7.5" in="shadowOffsetOuter1" result="shadowBlurOuter1"></feGaussianBlur>
            <feColorMatrix values="0 0 0 0 0   0 0 0 0 0   0 0 0 0 0  0 0 0 0.5 0" type="matrix" in="shadowBlurOuter1" result="shadowMatrixOuter1"></feColorMatrix>
            <feOffset dx="-2" dy="-2" in="SourceAlpha" result="shadowOffsetOuter2"></feOffset>
            <feGaussianBlur stdDeviation="7.5" in="shadowOffsetOuter2" result="shadowBlurOuter2"></feGaussianBlur>
            <feColorMatrix values="0 0 0 0 0.290221632   0 0 0 0 0.290175289   0 0 0 0 0.290237457  0 0 0 0.498980978 0" type="matrix" in="shadowBlurOuter2" result="shadowMatrixOuter2"></feColorMatrix>
            <feMerge>
                <feMergeNode in="shadowMatrixOuter1"></feMergeNode>
                <feMergeNode in="shadowMatrixOuter2"></feMergeNode>
            </feMerge>
        </filter>
        <polygon id="path-4" points="0.260594732 58.1401604 53.0843435 58.1401604 53.0843435 0.303405504 0.260594732 0.303405504"></polygon>
    </defs>
    <g id="Page-3" stroke="none" stroke-width="1" fill="none" fill-rule="evenodd">
        <g id="Mobile-Portrait" transform="translate(-113.000000, -7.000000)">
            <g id="logo" transform="translate(130.000000, 24.000000)">
                <g id="Group-3" transform="translate(0.000000, 0.004307)">
                    <mask id="mask-2" fill="white">
                        <use xlink:href="#path-1"></use>
                    </mask>
                    <g id="Clip-2" fill-opacity="1" fill="black">
                        <use filter="url(#filter-3)" xlink:href="#path-1"></use>
                    </g>
                    <path d="M54.340079,58.1401604 L4.71181155,58.1401604 C2.10963323,58.1401604 -6.2816616e-05,56.0738775 -6.2816616e-05,53.5252467 L-6.2816616e-05,4.9182269 C-6.2816616e-05,2.36959606 2.10963323,0.303313218 4.71181155,0.303313218 L54.340079,0.303313218 C56.9422573,0.303313218 59.0519534,2.36959606 59.0519534,4.9182269 L59.0519534,53.5252467 C59.0519534,56.0738775 56.9422573,58.1401604 54.340079,58.1401604" id="Fill-1" fill="#2D2D2D" mask="url(#mask-2)"></path>
                </g>
                <path d="M11.2398713,48.2148044 L12.1582503,48.2148044 C12.5059402,48.2148044 12.7876727,47.9388694 12.7876727,47.5983341 L12.7876727,10.4501555 C12.7876727,10.1099279 12.5059402,9.83399284 12.1582503,9.83399284 L10.6104488,9.83399284 L10.6104488,47.5983341 C10.6104488,47.9388694 10.8921814,48.2148044 11.2398713,48.2148044" id="Fill-4" fill="#FFC05C"></path>
                <path d="M33.522998,57.1242457 L7.84011044,1.32784128 L54.3401104,1.32784128 C56.3640618,1.32784128 58.0104853,2.94038478 58.0104853,4.92268739 L58.0104853,53.5293996 C58.0104853,55.5117022 56.3640618,57.1242457 54.3401104,57.1242457 L33.522998,57.1242457 Z" id="Fill-6" fill="#FFC05C"></path>
                <g id="Group-10" transform="translate(5.967579, 0.004307)">
                    <mask id="mask-5" fill="white">
                        <use xlink:href="#path-4"></use>
                    </mask>
                    <g id="Clip-9"></g>
                    <path d="M48.3724691,0.303405504 L2.43750456,0.303405504 L0.260594732,0.303405504 L26.8825907,58.1402527 L29.0595005,58.1402527 L48.3724691,58.1402527 C50.9746474,58.1402527 53.0843435,56.0739698 53.0843435,53.525339 L53.0843435,4.91831919 C53.0843435,2.36968835 50.9746474,0.303405504 48.3724691,0.303405504 M48.3724691,2.34384827 C49.8219625,2.34384827 51.0010304,3.49865336 51.0010304,4.91831919 L51.0010304,53.525339 C51.0010304,54.9446972 49.8219625,56.0998099 48.3724691,56.0998099 L29.0595005,56.0998099 L28.2284367,56.0998099 L3.48465755,2.34384827 L48.3724691,2.34384827" id="Fill-8" fill="#2D2D2D" mask="url(#mask-5)"></path>
                </g>
                <path d="M46.572773,48.2148044 L47.4964914,48.2148044 C47.8426109,48.2148044 48.1230871,47.9400999 48.1230871,47.6011027 L48.1230871,10.4476945 C48.1230871,10.1086974 47.8426109,9.83399284 47.4964914,9.83399284 L46.572773,9.83399284 C46.2266535,9.83399284 45.9461773,10.1086974 45.9461773,10.4476945 L45.9461773,47.6011027 C45.9461773,47.9400999 46.2266535,48.2148044 46.572773,48.2148044" id="Fill-11" fill="#2D2D2D"></path>
                <path d="M29.250997,48.2148044 L30.4555056,48.2148044 L47.7234792,10.7024038 C47.9109868,10.2951151 47.6066403,9.83399284 47.1505917,9.83399284 L46.3521925,9.83399284 C46.1050091,9.83399284 45.8807538,9.97580561 45.779305,10.1963691 L28.6781094,47.3463935 C28.4906018,47.7536822 28.7946342,48.2148044 29.250997,48.2148044" id="Fill-13" fill="#2D2D2D"></path>
            </g>
        </g>
    </g>
</svg>